<?xml version="1.0" encoding="UTF-8" standalone="no"?>
<svg
   xmlns:dc="http://purl.org/dc/elements/1.1/"
   xmlns:cc="http://creativecommons.org/ns#"
   xmlns:rdf="http://www.w3.org/1999/02/22-rdf-syntax-ns#"
   xmlns:svg="http://www.w3.org/2000/svg"
   xmlns="http://www.w3.org/2000/svg"
   xmlns:sodipodi="http://sodipodi.sourceforge.net/DTD/sodipodi-0.dtd"
   xmlns:inkscape="http://www.inkscape.org/namespaces/inkscape"
   version="1.1"
   id="Your_Icon"
   x="0px"
   y="0px"
   width="10000"
   height="10000"
   viewBox="0 0 10000 10000"
   enable-background="new 0 0 100 100"
   xml:space="preserve"
   inkscape:version="0.48.3.1 r9886"
   sodipodi:docname="prspctvly.svg"><metadata
   id="metadata41"><rdf:RDF><cc:Work
       rdf:about=""><dc:format>image/svg+xml</dc:format><dc:type
         rdf:resource="http://purl.org/dc/dcmitype/StillImage" /></cc:Work></rdf:RDF></metadata><defs
   id="defs39" /><sodipodi:namedview
   pagecolor="#ffffff"
   bordercolor="#666666"
   borderopacity="1"
   objecttolerance="10"
   gridtolerance="10"
   guidetolerance="10"
   inkscape:pageopacity="0"
   inkscape:pageshadow="2"
   inkscape:window-width="1535"
   inkscape:window-height="876"
   id="namedview37"
   showgrid="false"
   inkscape:zoom="0.056568542"
   inkscape:cx="7791.4032"
   inkscape:cy="2044.1551"
   inkscape:window-x="65"
   inkscape:window-y="24"
   inkscape:window-maximized="1"
   inkscape:current-layer="g3"
   showguides="true"
   inkscape:guide-bbox="true" />
<g
   id="g3"
   transform="matrix(133.69015,0,0,133.69015,-1684.2021,-1648.7455)">
	<g
   id="g5"
   transform="matrix(-1,0,0,1,99.99543,0)"
   style="fill:#3b5998;fill-opacity:1">
		<path
   d="m 50.74,23.917 c -0.817,0 -1.479,-0.663 -1.479,-1.48 l 0.003,-7.4 c 0,-0.817 0.662,-1.479 1.48,-1.479 0.816,0 1.479,0.663 1.479,1.48 l -0.003,7.399 c 0,0.818 -0.662,1.48 -1.48,1.48"
   id="path7"
   inkscape:connector-curvature="0"
   style="fill:#3b5998;fill-opacity:1" />
	</g>
	<g
   id="g9"
   transform="matrix(-1,0,0,1,99.99543,0)"
   style="fill:#3b5998;fill-opacity:1">
		<path
   d="m 64.053,28.359 c -0.311,0 -0.618,-0.098 -0.885,-0.296 -0.657,-0.49 -0.787,-1.417 -0.296,-2.071 l 4.441,-5.918 c 0.489,-0.654 1.419,-0.785 2.072,-0.296 0.653,0.491 0.784,1.419 0.295,2.071 l -4.443,5.917 c -0.288,0.39 -0.734,0.593 -1.184,0.593"
   id="path11"
   inkscape:connector-curvature="0"
   style="fill:#3b5998;fill-opacity:1" />
	</g>
	<g
   id="g13"
   transform="matrix(-1,0,0,1,99.99543,0)"
   style="fill:#3b5998;fill-opacity:1">
		<path
   d="m 35.943,28.35 c -0.451,0 -0.892,-0.204 -1.185,-0.593 l -4.437,-5.92 c -0.49,-0.653 -0.357,-1.581 0.299,-2.071 0.65,-0.489 1.577,-0.358 2.068,0.297 l 4.437,5.921 c 0.49,0.653 0.356,1.581 -0.296,2.07 -0.264,0.198 -0.577,0.296 -0.886,0.296"
   id="path15"
   inkscape:connector-curvature="0"
   style="fill:#3b5998;fill-opacity:1" />
	</g>
	<g
   id="g17"
   transform="matrix(-1,0,0,1,99.99543,0)"
   style="fill:#3b5998;fill-opacity:1">
		<path
   d="m 25.579,38.703 c -0.221,0 -0.447,-0.05 -0.658,-0.156 l -5.918,-2.961 c -0.731,-0.367 -1.027,-1.255 -0.661,-1.986 0.367,-0.73 1.254,-1.024 1.985,-0.662 l 5.919,2.961 c 0.731,0.367 1.025,1.255 0.661,1.987 -0.261,0.518 -0.783,0.817 -1.328,0.817"
   id="path19"
   inkscape:connector-curvature="0"
   style="fill:#3b5998;fill-opacity:1" />
	</g>
	<g
   id="g21"
   transform="matrix(-1,0,0,1,99.99543,0)"
   style="fill:#3b5998;fill-opacity:1">
		<path
   d="m 74.409,38.72 c -0.544,0 -1.063,-0.3 -1.324,-0.817 -0.366,-0.732 -0.068,-1.62 0.663,-1.987 l 5.92,-2.957 c 0.731,-0.363 1.619,-0.069 1.987,0.663 0.363,0.73 0.069,1.619 -0.664,1.985 l -5.919,2.957 c -0.217,0.107 -0.441,0.156 -0.663,0.156"
   id="path23"
   inkscape:connector-curvature="0"
   style="fill:#3b5998;fill-opacity:1" />
	</g>
	<g
   id="g25"
   transform="matrix(-1,0,0,1,99.99543,0)"
   style="fill:#3b5998;fill-opacity:1">
		<path
   d="M 61.077,85.907 34.443,85.898 C 33.66,85.897 33.025,85.262 33.025,84.479 l 0.008,-22.148 c -2.905,-3.862 -4.436,-8.438 -4.434,-13.27 0.004,-12.205 9.937,-22.13 22.141,-22.125 12.205,0.004 22.13,9.937 22.126,22.142 l -0.001,1.214 c 4.436,11.459 4.435,11.786 4.435,12.104 -10e-4,1.598 -1.301,2.898 -2.899,2.897 l -3.02,-0.001 -0.001,3.02 c -0.002,5.196 -3.873,8.087 -8.881,8.778 l -0.002,7.401 c -10e-4,0.782 -0.637,1.417 -1.42,1.416 z M 35.862,83.062 59.66,83.07 59.661,75.766 c 10e-4,-0.783 0.636,-1.418 1.42,-1.418 4.112,0.001 7.459,-1.926 7.461,-6.038 l 0.002,-4.438 c 0,-0.784 0.635,-1.419 1.419,-1.419 l 4.438,0.002 c 0.009,0 0.016,-0.002 0.022,-0.005 -0.463,-1.397 -2.817,-7.555 -4.3,-11.382 -0.062,-0.164 -0.096,-0.338 -0.096,-0.514 l 0.001,-1.479 c 0.003,-10.64 -8.649,-19.299 -19.29,-19.303 -10.64,-0.004 -19.299,8.649 -19.302,19.29 -0.002,4.354 1.427,8.472 4.131,11.91 0.196,0.25 0.303,0.559 0.303,0.878 l -0.008,21.212 z"
   id="path27"
   inkscape:connector-curvature="0"
   style="fill:#3b5998;fill-opacity:1" />
	</g>
	<g
   id="g29"
   transform="matrix(-1,0,0,1,99.99543,0)"
   style="fill:#3b5998;fill-opacity:1">
		<path
   d="m 50.719,39.713 c -4.263,-0.002 -7.729,3.464 -7.731,7.726 -10e-4,4.261 3.464,7.729 7.726,7.73 4.262,0.002 7.73,-3.463 7.732,-7.724 0,-4.262 -3.466,-7.731 -7.727,-7.732 M 50.712,58.716 C 44.494,58.714 39.439,53.654 39.441,47.438 39.443,41.22 44.502,36.164 50.72,36.167 c 6.218,0.002 11.273,5.062 11.271,11.279 -0.003,6.216 -5.061,11.273 -11.279,11.27"
   id="path31"
   inkscape:connector-curvature="0"
   style="fill:#3b5998;fill-opacity:1" />
	</g>
	<g
   id="g33"
   transform="matrix(-1,0,0,1,99.99543,0)"
   style="fill:#3b5998;fill-opacity:1">
		<path
   d="m 50.717,45.459 c -1.093,0 -1.982,0.889 -1.982,1.981 -10e-4,1.093 0.888,1.983 1.98,1.983 1.094,0 1.982,-0.889 1.982,-1.982 0,-1.092 -0.887,-1.982 -1.98,-1.982 m -0.003,7.511 c -3.049,-10e-4 -5.527,-2.482 -5.526,-5.531 10e-4,-3.048 2.481,-5.527 5.53,-5.526 3.048,0.001 5.527,2.482 5.526,5.53 -0.002,3.048 -2.482,5.528 -5.53,5.527"
   id="path35"
   inkscape:connector-curvature="0"
   style="fill:#3b5998;fill-opacity:1" />
	</g>
<text
   xml:space="preserve"
   style="font-size:29.91991996999999870px;font-style:normal;font-variant:normal;font-weight:normal;font-stretch:normal;line-height:125%;letter-spacing:0px;word-spacing:0px;fill:#3b5998;fill-opacity:1;stroke:none;font-family:Ubuntu Mono;-inkscape-font-specification:Ubuntu Mono"
   x="14.977917"
   y="106.56999"
   id="text3788"
   sodipodi:linespacing="125%"><tspan
     sodipodi:role="line"
     id="tspan3790"
     x="14.977917"
     y="106.56999"
     style="font-size:14.95996571000000053px;font-style:normal;font-variant:normal;font-weight:bold;font-stretch:normal;font-family:Liberation Sans;-inkscape-font-specification:Liberation Sans Bold;fill:#3b5998;fill-opacity:1" /></text>
</g>
</svg>